# xmcd
#
# Track frame offsets:
#	150
#	10307
#	21946
#	34001
#	48946
#	59503
#	76423
#	87773
#	102939
#	121478
#	133079
#	149780
#	161501
#	171982
#	182175
#	198830
#	211399
#	229083
#	239673
#	251942
#
# Disc length: 3538 seconds
#
# Revision: 0
# Processed by: cddbd v1.5PL3 Copyright (c) Steve Scherf et al.
# Submitted via: dBpowerAMP V4.0
#
DISCID=240dd014
DTITLE=Glen Campbell - 20 Great Love Songs
DYEAR=1900
DGENRE=
TTITLE0=My Special Angel
TTITLE1=All I Have To Do Is Dream
TTITLE2=I Can't Help It
TTITLE3=Your Cheatin' Heart
TTITLE4=Help Me Make It Through The Night
TTITLE5=If You Could Read My Mind
TTITLE6=You've Still Got A Place In My Heart
TTITLE7=God Only Knows
TTITLE8=The Last Time I Saw Her
TTITLE9=(Sittin'On) The Dock Of The Bay
TTITLE10=If You Go Away
TTITLE11=Take These Chains From My Heart
TTITLE12=Reason To Believe
TTITLE13=Someday Soon
TTITLE14=You Win Again
TTITLE15=Words
TTITLE16=The Last Thing On My Mind
TTITLE17=Together Again
TTITLE18=By The Time I Get To Phoenix
TTITLE19=Honey Come Back
EXTD=
EXTT0=
EXTT1=
EXTT2=
EXTT3=
EXTT4=
EXTT5=
EXTT6=
EXTT7=
EXTT8=
EXTT9=
EXTT10=
EXTT11=
EXTT12=
EXTT13=
EXTT14=
EXTT15=
EXTT16=
EXTT17=
EXTT18=
EXTT19=
PLAYORDER=
